<?xml version="1.0" encoding="utf-8"?>
<!-- Generator: Adobe Illustrator 16.0.0, SVG Export Plug-In . SVG Version: 6.00 Build 0)  -->
<!DOCTYPE svg PUBLIC "-//W3C//DTD SVG 1.1//EN" "http://www.w3.org/Graphics/SVG/1.1/DTD/svg11.dtd">
<svg version="1.1" id="Camada_1" xmlns="http://www.w3.org/2000/svg" xmlns:xlink="http://www.w3.org/1999/xlink" x="0px" y="0px"
	 width="464.542px" height="222.357px" viewBox="0 0 464.542 222.357" enable-background="new 0 0 464.542 222.357"
	 xml:space="preserve">
<g>
	<defs>
		<polygon id="SVGID_1_" points="0,222.357 149.689,122.182 149.689,29.809 		"/>
	</defs>
	<clipPath id="SVGID_2_">
		<use xlink:href="#SVGID_1_"  overflow="visible"/>
	</clipPath>
	
		<linearGradient id="SVGID_3_" gradientUnits="userSpaceOnUse" x1="4.882812e-04" y1="222.3569" x2="1.0005" y2="222.3569" gradientTransform="matrix(149.6885 0 0 -149.6885 0 33410.3828)">
		<stop  offset="0" style="stop-color:#FFFFFE"/>
		<stop  offset="0.5911" style="stop-color:#87AFBB"/>
		<stop  offset="1" style="stop-color:#00657E"/>
	</linearGradient>
	<rect y="29.809" clip-path="url(#SVGID_2_)" fill="url(#SVGID_3_)" width="149.689" height="192.548"/>
</g>
<g>
	<defs>
		<polygon id="SVGID_4_" points="149.689,122.182 0,222.357 241.724,122.182 		"/>
	</defs>
	<clipPath id="SVGID_5_">
		<use xlink:href="#SVGID_4_"  overflow="visible"/>
	</clipPath>
	
		<linearGradient id="SVGID_6_" gradientUnits="userSpaceOnUse" x1="4.882812e-04" y1="222.3569" x2="1.0005" y2="222.3569" gradientTransform="matrix(241.7237 0 0 -241.7237 0 53921.168)">
		<stop  offset="0" style="stop-color:#FFFFFE"/>
		<stop  offset="1" style="stop-color:#87AFBB"/>
	</linearGradient>
	<rect y="122.182" clip-path="url(#SVGID_5_)" fill="url(#SVGID_6_)" width="241.724" height="100.175"/>
</g>
<g>
	<defs>
		<polygon id="SVGID_7_" points="0,222.357 241.724,136.119 241.724,122.182 		"/>
	</defs>
	<clipPath id="SVGID_8_">
		<use xlink:href="#SVGID_7_"  overflow="visible"/>
	</clipPath>
	
		<linearGradient id="SVGID_9_" gradientUnits="userSpaceOnUse" x1="4.882812e-04" y1="222.3569" x2="1.0005" y2="222.3569" gradientTransform="matrix(241.7237 0 0 -241.7237 0 53921.168)">
		<stop  offset="0" style="stop-color:#FFFFFE"/>
		<stop  offset="1" style="stop-color:#C2D6DC"/>
	</linearGradient>
	<rect y="122.182" clip-path="url(#SVGID_8_)" fill="url(#SVGID_9_)" width="241.724" height="100.175"/>
</g>
<polygon fill="#FFFFFF" points="172.102,99.617 172.102,0.375 186.929,0.375 186.929,87.136 241.124,87.136 241.124,99.617 "/>
<g>
	<defs>
		<rect id="SVGID_10_" width="464.542" height="222.357"/>
	</defs>
	<clipPath id="SVGID_11_">
		<use xlink:href="#SVGID_10_"  overflow="visible"/>
	</clipPath>
	<polygon clip-path="url(#SVGID_11_)" fill="none" stroke="#FFFFFF" stroke-width="0.75" stroke-miterlimit="10" points="
		172.102,99.617 172.102,0.375 186.929,0.375 186.929,87.136 241.124,87.136 241.124,99.617 	"/>
	<path clip-path="url(#SVGID_11_)" fill="#FFFFFF" d="M335.562,92.02c-8.856,7.232-19.903,11.033-32.738,11.033
		c-12.848,0-24.065-3.801-32.927-11.033c-9.951-8.139-13.934-17.727-13.934-33.284V0.375H270.8v53.838
		c0,14.832,1.086,18.991,6.873,25.324c5.969,6.694,14.65,10.31,24.967,10.31c10.306,0,18.997-3.616,24.967-10.31
		c5.782-6.333,6.872-10.492,6.872-25.324V0.375h14.839v58.361C349.317,74.654,345.515,83.881,335.562,92.02"/>
	<path clip-path="url(#SVGID_11_)" fill="none" stroke="#FFFFFF" stroke-width="0.75" stroke-miterlimit="10" d="M335.562,92.02
		c-8.856,7.232-19.903,11.033-32.738,11.033c-12.848,0-24.065-3.801-32.927-11.033c-9.951-8.139-13.934-17.727-13.934-33.284V0.375
		H270.8v53.838c0,14.832,1.086,18.991,6.873,25.324c5.969,6.694,14.65,10.31,24.967,10.31c10.306,0,18.997-3.616,24.967-10.31
		c5.782-6.333,6.872-10.492,6.872-25.324V0.375h14.839v58.361C349.317,74.654,345.515,83.881,335.562,92.02z"/>
	<polygon clip-path="url(#SVGID_11_)" fill="#FFFFFF" points="371.438,99.617 371.438,92.743 443.8,12.855 371.438,12.855 
		371.438,0.375 464.06,0.375 464.06,8.34 391.705,87.136 464.06,87.136 464.06,99.617 	"/>
	<polygon clip-path="url(#SVGID_11_)" fill="none" stroke="#FFFFFF" stroke-width="0.75" stroke-miterlimit="10" points="
		371.438,99.617 371.438,92.743 443.8,12.855 371.438,12.855 371.438,0.375 464.06,0.375 464.06,8.34 391.705,87.136 464.06,87.136 
		464.06,99.617 	"/>
	<path clip-path="url(#SVGID_11_)" fill="#FFFFFF" d="M258.311,131.095v0.404c0,1.289,0.365,2.116,1.828,2.116
		c0.847,0,1.654-0.539,1.654-1.693c0-1.231-0.615-1.732-2.463-2.349c-2.463-0.827-3.6-1.885-3.6-4.157
		c0-2.694,1.617-4.042,4.254-4.042c2.465,0,4.254,1.06,4.254,3.696v0.385h-2.656c0-1.309-0.424-2.041-1.501-2.041
		c-1.251,0-1.579,0.771-1.579,1.598c0,0.848,0.25,1.387,1.425,1.867l2.138,0.923c2.078,0.926,2.617,1.945,2.617,3.64
		c0,2.906-1.771,4.215-4.773,4.215c-3.138,0-4.369-1.463-4.369-4.003v-0.559H258.311z"/>
	<path clip-path="url(#SVGID_11_)" fill="#FFFFFF" d="M271.632,121.375c4.157,0,4.677,2.964,4.677,7.14
		c0,4.177-0.52,7.143-4.677,7.143c-4.158,0-4.677-2.966-4.677-7.143C266.955,124.339,267.474,121.375,271.632,121.375
		 M271.632,133.617c1.636,0,1.904-1.405,1.904-5.102c0-3.676-0.269-5.1-1.904-5.1s-1.905,1.424-1.905,5.1
		C269.727,132.211,269.996,133.617,271.632,133.617"/>
	<polygon clip-path="url(#SVGID_11_)" fill="#FFFFFF" points="279.123,135.387 279.123,121.644 281.895,121.644 281.895,133.117 
		286.803,133.117 286.803,135.387 	"/>
	<path clip-path="url(#SVGID_11_)" fill="#FFFFFF" d="M291.81,121.644v9.586c0,1.367,0.308,2.386,1.617,2.386
		c1.309,0,1.617-1.019,1.617-2.386v-9.586h2.771v9.586c0,3.483-2.137,4.427-4.389,4.427s-4.388-0.751-4.388-4.427v-9.586H291.81z"/>
	<path clip-path="url(#SVGID_11_)" fill="#FFFFFF" d="M306.613,126.283c0-2.001-0.404-2.868-1.655-2.868
		c-1.386,0-1.732,1.387-1.732,5.294c0,4.157,0.577,4.907,1.771,4.907c0.981,0,1.732-0.5,1.732-3.483h2.772
		c0,2.252-0.405,4.195-2.156,5.081c-0.501,0.25-1.136,0.404-1.886,0.443l-0.559,0.847c0.23-0.077,0.403-0.096,0.636-0.096
		c0.827,0,1.674,0.48,1.615,1.385c0,1.137-0.865,1.771-2.425,1.771c-0.846,0-1.616-0.192-1.924-0.366l0.365-0.885
		c0.289,0.153,0.847,0.289,1.328,0.289c0.539,0,0.963-0.251,0.963-0.636s-0.328-0.597-0.848-0.615c-0.288,0-0.442,0.038-0.654,0.114
		l-0.424-0.385l0.943-1.463c-0.751-0.058-1.347-0.211-1.828-0.48c-1.887-1.098-2.194-3.445-2.194-6.621
		c0-4.178,0.52-7.142,4.677-7.142c3.965,0,4.254,2.907,4.254,4.908H306.613z"/>
	<path clip-path="url(#SVGID_11_)" fill="#FFFFFF" d="M316.646,121.375c4.158,0,4.677,2.964,4.677,7.14
		c0,4.177-0.519,7.143-4.677,7.143s-4.677-2.966-4.677-7.143C311.969,124.339,312.487,121.375,316.646,121.375 M313.604,120.663
		c0.213-1.521,0.81-2.388,1.791-2.388c0.327,0,0.616,0.039,0.828,0.136l0.923,0.404c0.193,0.076,0.385,0.115,0.578,0.115
		c0.366,0,0.538-0.443,0.538-0.692h1.387c-0.135,1.386-0.809,2.387-1.791,2.387c-0.808,0-1.674-0.654-2.29-0.654
		c-0.327,0-0.519,0.231-0.616,0.692H313.604z M316.646,133.617c1.636,0,1.906-1.405,1.906-5.102c0-3.676-0.271-5.1-1.906-5.1
		s-1.905,1.424-1.905,5.1C314.74,132.211,315.01,133.617,316.646,133.617"/>
	<polygon clip-path="url(#SVGID_11_)" fill="#FFFFFF" points="331.814,121.644 331.814,123.916 326.907,123.916 326.907,127.149 
		331.526,127.149 331.526,129.42 326.907,129.42 326.907,133.116 332.008,133.116 332.008,135.387 324.135,135.387 324.135,121.644 
			"/>
	<path clip-path="url(#SVGID_11_)" fill="#FFFFFF" d="M336.803,131.095v0.404c0,1.289,0.365,2.116,1.828,2.116
		c0.847,0,1.654-0.539,1.654-1.693c0-1.231-0.615-1.732-2.463-2.349c-2.464-0.827-3.6-1.885-3.6-4.157
		c0-2.694,1.617-4.042,4.254-4.042c2.465,0,4.254,1.06,4.254,3.696v0.385h-2.656c0-1.309-0.424-2.041-1.501-2.041
		c-1.251,0-1.579,0.771-1.579,1.598c0,0.848,0.251,1.387,1.424,1.867l2.138,0.923c2.079,0.926,2.618,1.945,2.618,3.64
		c0,2.906-1.771,4.215-4.773,4.215c-3.138,0-4.369-1.463-4.369-4.003v-0.559H336.803z"/>
	<polygon clip-path="url(#SVGID_11_)" fill="#FFFFFF" points="351.531,121.644 359.211,121.644 359.211,123.916 354.303,123.916 
		354.303,127.149 358.922,127.149 358.922,129.42 354.303,129.42 354.303,135.387 351.531,135.387 	"/>
	<rect x="361.756" y="121.644" clip-path="url(#SVGID_11_)" fill="#FFFFFF" width="2.771" height="13.743"/>
	<polygon clip-path="url(#SVGID_11_)" fill="#FFFFFF" points="370.956,121.644 374.305,131.056 374.344,131.056 374.344,121.644 
		376.885,121.644 376.885,135.387 373.728,135.387 370.34,125.763 370.302,125.763 370.302,135.387 367.761,135.387 
		367.761,121.644 	"/>
	<path clip-path="url(#SVGID_11_)" fill="#FFFFFF" d="M382.663,121.644h3.427l3.638,13.743h-2.888l-0.635-2.907h-3.657l-0.635,2.907
		h-2.888L382.663,121.644z M383.029,130.209h2.694l-1.329-6.178h-0.038L383.029,130.209z"/>
	<polygon clip-path="url(#SVGID_11_)" fill="#FFFFFF" points="395.061,121.644 398.409,131.056 398.448,131.056 398.448,121.644 
		400.989,121.644 400.989,135.387 397.832,135.387 394.444,125.763 394.406,125.763 394.406,135.387 391.865,135.387 
		391.865,121.644 	"/>
	<path clip-path="url(#SVGID_11_)" fill="#FFFFFF" d="M409.963,126.283c0-2.001-0.404-2.868-1.656-2.868
		c-1.386,0-1.731,1.387-1.731,5.294c0,4.157,0.578,4.907,1.771,4.907c0.982,0,1.732-0.5,1.732-3.483h2.771
		c0,2.983-0.73,5.524-4.369,5.524c-4.157,0-4.678-2.964-4.678-7.141c0-4.178,0.521-7.142,4.678-7.142
		c3.965,0,4.254,2.907,4.254,4.908H409.963z"/>
	<polygon clip-path="url(#SVGID_11_)" fill="#FFFFFF" points="423.284,121.644 423.284,123.916 418.375,123.916 418.375,127.149 
		422.995,127.149 422.995,129.42 418.375,129.42 418.375,133.116 423.478,133.116 423.478,135.387 415.604,135.387 415.604,121.644 
			"/>
	<rect x="426.173" y="121.644" clip-path="url(#SVGID_11_)" fill="#FFFFFF" width="2.772" height="13.743"/>
	<path clip-path="url(#SVGID_11_)" fill="#FFFFFF" d="M432.182,121.644h5.118c2.291,0,3.657,1.174,3.657,3.542
		c0,1.848-0.73,3.06-2.29,3.388v0.038c1.888,0.25,2.156,1.289,2.214,4.196c0.02,1.463,0.097,2.175,0.616,2.464v0.115h-3.003
		c-0.289-0.386-0.327-0.904-0.346-1.443l-0.077-2.637c-0.058-1.078-0.501-1.733-1.637-1.733h-1.482v5.813h-2.771V121.644z
		 M434.952,127.65h1.155c1.328,0,2.079-0.578,2.079-2.06c0-1.271-0.636-1.905-1.926-1.905h-1.309V127.65z"/>
	<path clip-path="url(#SVGID_11_)" fill="#FFFFFF" d="M446.734,121.644h3.425l3.64,13.743h-2.888l-0.636-2.907h-3.657l-0.635,2.907
		h-2.887L446.734,121.644z M447.1,130.209h2.695l-1.328-6.178h-0.038L447.1,130.209z"/>
	<path clip-path="url(#SVGID_11_)" fill="#FFFFFF" d="M458.172,131.095v0.404c0,1.289,0.365,2.116,1.828,2.116
		c0.847,0,1.655-0.539,1.655-1.693c0-1.231-0.615-1.732-2.464-2.349c-2.464-0.827-3.6-1.885-3.6-4.157
		c0-2.694,1.618-4.042,4.254-4.042c2.465,0,4.254,1.06,4.254,3.696v0.385h-2.655c0-1.309-0.424-2.041-1.501-2.041
		c-1.252,0-1.579,0.771-1.579,1.598c0,0.848,0.25,1.387,1.424,1.867l2.137,0.923c2.079,0.926,2.618,1.945,2.618,3.64
		c0,2.906-1.771,4.215-4.773,4.215c-3.139,0-4.369-1.463-4.369-4.003v-0.559H458.172z"/>
</g>
</svg>
